<svg xmlns="http://www.w3.org/2000/svg" viewBox="0 0 500 500"><g id="freepik--Graphics--inject-66"><rect x="93.24" y="157.71" width="18.97" height="18.97" style="fill:#fff"></rect><rect x="119.2" y="157.71" width="18.97" height="18.97" style="fill:#fff"></rect><rect x="93.24" y="184.67" width="18.97" height="18.97" style="fill:#fff"></rect><rect x="119.2" y="184.67" width="18.97" height="18.97" style="fill:#fff"></rect><rect x="93.24" y="211.63" width="18.97" height="18.97" style="fill:#fff"></rect><rect x="119.2" y="211.63" width="18.97" height="18.97" style="fill:#fff"></rect><rect x="93.24" y="238.59" width="18.97" height="18.97" style="fill:#fff"></rect><rect x="119.2" y="238.59" width="18.97" height="18.97" style="fill:#fff"></rect><rect x="93.24" y="265.55" width="18.97" height="18.97" style="fill:#fff"></rect><rect x="119.2" y="265.55" width="18.97" height="18.97" style="fill:#fff"></rect><rect x="93.24" y="292.51" width="18.97" height="18.97" style="fill:#fff"></rect><rect x="119.2" y="292.51" width="18.97" height="18.97" style="fill:#fff"></rect><rect x="93.24" y="319.46" width="18.97" height="18.97" style="fill:#fff"></rect><rect x="119.2" y="319.46" width="18.97" height="18.97" style="fill:#fff"></rect><path d="M337.19,169.68v53.77h76.15V169.68Zm73.15,50.77H340.19V172.68h70.15Z" style="fill:#fff"></path><rect x="344.71" y="180.09" width="11.19" height="11.19" style="fill:#fff"></rect><rect x="369.67" y="180.09" width="11.19" height="11.19" style="fill:#fff"></rect><rect x="394.63" y="180.09" width="11.19" height="11.19" style="fill:#fff"></rect><rect x="344.71" y="200.74" width="11.19" height="11.19" style="fill:#fff"></rect><rect x="369.67" y="200.74" width="11.19" height="11.19" style="fill:#fff"></rect><rect x="394.63" y="200.74" width="11.19" height="11.19" style="fill:#fff"></rect><path d="M363.87,210.13V263.9H440V210.13ZM437,260.9H366.87V213.13H437Z" style="fill:#fff"></path><rect x="371.39" y="220.53" width="11.19" height="11.19" style="fill:#fff"></rect><rect x="396.35" y="220.53" width="11.19" height="11.19" style="fill:#fff"></rect><rect x="421.31" y="220.53" width="11.19" height="11.19" style="fill:#fff"></rect><rect x="371.39" y="241.19" width="11.19" height="11.19" style="fill:#fff"></rect><rect x="396.35" y="241.19" width="11.19" height="11.19" style="fill:#fff"></rect><rect x="421.31" y="241.19" width="11.19" height="11.19" style="fill:#fff"></rect><rect x="231.12" y="358.75" width="25.53" height="25.53" style="fill:#fff"></rect><path d="M270.91,396.72H242.38V368.19h28.53Zm-25.53-3h22.53V371.19H245.38Z" style="fill:#fff"></path></g><g id="freepik--pen-tool-5--inject-66"><circle cx="250.98" cy="245.3" r="75.33" style="fill:#19212E"></circle><path d="M250.25,257.62v26.62H227.67l-13.88-32,31.56-74.13h4.9v65.52a7.06,7.06,0,0,0,0,14Zm7.62-79.48H253v65.63a7.06,7.06,0,0,1,0,13.75v26.72h22.58l13.88-32Z" style="fill:#fff;stroke:#263238;stroke-linecap:round;stroke-linejoin:round"></path><rect x="228.01" y="287.8" width="47.41" height="16.03" style="stroke:#263238;stroke-linecap:round;stroke-linejoin:round"></rect><path d="M258.41,250.64a7.07,7.07,0,0,1-5.44,6.88v26.72h22.58l13.88-32-9.13-21.44a218.26,218.26,0,0,1-23.09,15.88A7,7,0,0,1,258.41,250.64Z" style="stroke:#263238;stroke-linecap:round;stroke-linejoin:round"></path><path d="M227.67,284.24h22.58V257.62a7.08,7.08,0,0,1-5.31-4c-9.33,5-18.09,9-25.31,12Z" style="stroke:#263238;stroke-linecap:round;stroke-linejoin:round"></path><path d="M359,245.3a108,108,0,0,0-216,0" style="fill:none;stroke:#263238;stroke-miterlimit:10;stroke-width:4px"></path><line x1="184.71" y1="137.3" x2="317.24" y2="137.3" style="fill:none;stroke:#263238;stroke-miterlimit:10;stroke-width:4px"></line><circle cx="250.98" cy="137.3" r="7.13" style="fill:#fff;stroke:#263238;stroke-miterlimit:10;stroke-width:4px"></circle><circle cx="185.57" cy="137.3" r="7.13" style="fill:#fff;stroke:#263238;stroke-miterlimit:10;stroke-width:4px"></circle><circle cx="316.31" cy="137.3" r="7.13" style="fill:#fff;stroke:#263238;stroke-miterlimit:10;stroke-width:4px"></circle></g><g id="freepik--pen-tool-4--inject-66"><circle cx="367.64" cy="265.97" r="32.67" transform="translate(-80.39 337.86) rotate(-45)" style="fill:#19212E"></circle><path d="M362.16,291.6a1.5,1.5,0,0,1-1.49-1.39l-3.13-44.39a1.5,1.5,0,0,1,2.64-1.07l28.07,33.3A1.5,1.5,0,1,1,386,280l-25.11-29.8,2.8,39.82a1.49,1.49,0,0,1-1.38,1.59Z"></path></g><g id="freepik--pen-tool-3--inject-66"><circle cx="315.23" cy="349.93" r="32.67" transform="translate(-154.62 382.41) rotate(-51.94)" style="fill:#19212E"></circle><path d="M333.73,349.58l9.35-9.36,7.94,7.94-6.36,16.11-37.16,15-1.72-1.72,23-23a3.51,3.51,0,0,0,4.91-4.91ZM303.1,374.84l1.72,1.73,23.08-23.08a3.51,3.51,0,0,1,4.83-4.83l9.4-9.4-7.94-7.94-16.12,6.36Z" style="fill:#fff;stroke:#263238;stroke-linecap:round;stroke-linejoin:round"></path><rect x="334.85" y="331.65" width="23.57" height="7.97" transform="translate(354.42 818.07) rotate(-135)" style="stroke:#263238;stroke-linecap:round;stroke-linejoin:round"></rect><path d="M301.54,381.43a1.59,1.59,0,0,1-.43-.06c-.14,0-14-4.43-12.49-17.43.71-6.08,3.84-9.66,6.87-13.11,3.22-3.68,6.26-7.16,6.47-13.72.4-12-9.38-14.7-9.79-14.81a1.5,1.5,0,0,1,.73-2.9c.13,0,12.53,3.33,12.05,17.8-.25,7.63-3.79,11.68-7.21,15.59-2.85,3.26-5.55,6.34-6.15,11.5-1.23,10.51,9.92,14.07,10.39,14.22a1.49,1.49,0,0,1-.44,2.92Z"></path></g><g id="freepik--pen-tool-2--inject-66"><circle cx="184.31" cy="351.26" r="32.67" transform="translate(-74.8 50.9) rotate(-13.1)" style="fill:#19212E"></circle><path d="M199.57,350.15l9.36-9.36,7.93,7.94-6.36,16.11-37.16,15-1.72-1.73,23-23a3.51,3.51,0,0,0,4.91-4.91Zm-30.63,25.27,1.72,1.72,23.08-23.08a3.51,3.51,0,0,1,4.83-4.83l9.4-9.4L200,331.89l-16.12,6.36Z" style="fill:#fff;stroke:#263238;stroke-linecap:round;stroke-linejoin:round"></path><rect x="200.69" y="332.22" width="23.57" height="7.97" transform="translate(124.99 724.18) rotate(-135)" style="stroke:#263238;stroke-linecap:round;stroke-linejoin:round"></rect><rect x="157.4" y="335.52" width="3.98" height="28.88"></rect><rect x="157.4" y="335.52" width="3.98" height="28.88" transform="translate(509.35 190.57) rotate(90)"></rect></g><g id="freepik--pen-tool-1--inject-66"><circle cx="128.98" cy="263.97" r="32.67" transform="translate(-164.65 273.91) rotate(-65.9)" style="fill:#19212E"></circle><path d="M142.8,260.05l9.36-9.36,7.94,7.94-6.36,16.12-37.16,15L114.86,288l23-23a3.51,3.51,0,0,0,4.9-4.91Zm-30.62,25.27L113.9,287,137,264a3.51,3.51,0,0,1,4.83-4.84l9.4-9.39-7.94-7.94-16.12,6.36Z" style="fill:#fff;stroke:#263238;stroke-linecap:round;stroke-linejoin:round"></path><rect x="143.93" y="242.12" width="23.57" height="7.97" transform="translate(91.8 530.24) rotate(-135)" style="stroke:#263238;stroke-linecap:round;stroke-linejoin:round"></rect><rect x="100.64" y="245.43" width="3.98" height="28.88" transform="translate(362.5 157.23) rotate(90)"></rect></g></svg>